<svg width="83" height="21" viewBox="0 0 83 21" fill="none" xmlns="http://www.w3.org/2000/svg">
<g clip-path="url(#clip0_4191_718)">
<path d="M0 3.09961H3.2V14.8996H9.2V17.8996H0V3.09961Z" fill="#0A66C2"/>
<path d="M10.6984 7.90039H13.7984V17.9004H10.6984V7.90039ZM12.1984 2.90039C13.1984 2.90039 13.9984 3.70039 13.9984 4.70039C13.9984 5.70039 13.1984 6.50039 12.1984 6.50039C11.1984 6.50039 10.3984 5.70039 10.3984 4.70039C10.3984 3.70039 11.1984 2.90039 12.1984 2.90039Z" fill="#0A66C2"/>
<path d="M26.8008 3.09961H29.9008V11.8996L33.4008 7.89961H37.2008L33.2008 12.4996L37.2008 17.8996H33.3008L29.9008 12.8996V17.8996H26.8008V3.09961Z" fill="#0A66C2"/>
<path d="M15.4984 7.90091H18.4984V9.30091C19.0984 8.30091 20.1984 7.60091 21.3984 7.70091C24.5984 7.70091 25.0984 9.80091 25.0984 12.5009V18.0009H21.9984V13.0009C21.9984 11.8009 21.9984 10.3009 20.3984 10.3009C18.7984 10.3009 18.4984 11.6009 18.4984 12.9009V17.9009H15.3984V7.90091H15.4984Z" fill="#0A66C2"/>
<path d="M43.8 11.6996C43.8 10.6996 43 9.79961 42 9.79961H41.9C40.8 9.69961 39.8 10.5996 39.7 11.6996H43.8ZM46.4 16.1996C45.4 17.4996 43.8 18.1996 42.1 18.1996C39 18.1996 36.5 16.0996 36.5 12.8996C36.5 9.69961 39 7.59961 42.1 7.59961C45 7.59961 46.8 9.69961 46.8 12.8996V13.8996H39.6C39.8 14.9996 40.8 15.8996 41.9 15.8996C42.8 15.8996 43.6 15.3996 44.1 14.6996L46.4 16.1996Z" fill="#0A66C2"/>
<path d="M53.4008 10.2996C51.8008 10.2996 50.9008 11.2996 50.9008 12.8996C50.9008 14.4996 51.8008 15.4996 53.4008 15.4996C55.0008 15.4996 55.9008 14.4996 55.9008 12.8996C55.9008 11.2996 55.0008 10.2996 53.4008 10.2996ZM58.8008 17.8996H55.9008V16.5996C55.2008 17.5996 54.0008 18.1996 52.8008 18.1996C49.8008 18.1996 47.8008 15.9996 47.8008 12.9996C47.8008 10.1996 49.5008 7.59961 52.4008 7.59961C53.7008 7.59961 54.9008 7.99961 55.6008 8.89961V3.09961H58.7008L58.8008 17.8996Z" fill="#0A66C2"/>
<path d="M81.3008 0H63.4008C62.6008 0 61.9008 0.7 61.8008 1.5V19.5C61.8008 20.3 62.5008 21 63.4008 21H81.3008C82.1008 21 82.8008 20.3 82.9008 19.5V1.5C82.9008 0.7 82.2008 0 81.3008 0ZM68.1008 17.9H65.0008V7.9H68.1008V17.9ZM66.5008 6.5C65.5008 6.5 64.7008 5.7 64.7008 4.7C64.7008 3.7 65.5008 2.9 66.5008 2.9C67.5008 2.9 68.3008 3.7 68.3008 4.7C68.3008 5.7 67.5008 6.5 66.5008 6.5ZM79.8008 17.9H76.7008V13C76.7008 11.8 76.7008 10.3 75.1008 10.3C73.5008 10.3 73.2008 11.6 73.2008 12.9V17.9H70.1008V7.9H73.1008V9.3C73.7008 8.3 74.8008 7.6 76.0008 7.7C79.2008 7.7 79.7008 9.8 79.7008 12.5L79.8008 17.9Z" fill="#0A66C2"/>
</g>
<defs>
<clipPath id="clip0_4191_718">
<rect width="82.9" height="21" fill="white"/>
</clipPath>
</defs>
</svg>
