<?xml version="1.0" encoding="UTF-8"?>
<svg id="Layer_1" xmlns="http://www.w3.org/2000/svg" version="1.1" viewBox="0 0 800 800">
  <!-- Generator: Adobe Illustrator 29.8.1, SVG Export Plug-In . SVG Version: 2.1.1 Build 2)  -->
  <defs>
    <style>
      .st0 {
        fill: #f1204a;
      }

      .st1 {
        fill: #2dccd3;
      }

      .st2 {
        fill: #fff;
      }
    </style>
  </defs>
  <rect width="800" height="800"/>
  <path id="_x3C_Path_x3E_" class="st1" d="M348.9,336.9v-17.2c-7.9-1.3-15.9-1.8-22.5-1.8-89.6,0-164.5,71.9-164.5,161s28.5,108.5,71.8,138.1c-30.2-29.9-48.8-71.8-48.8-119.2,0-89,74.8-160.8,164.1-161ZM400.5,135.4v346.7c0,45.4-32.6,74.6-72.3,74.6s-25.7-3.1-36.5-8.8c13.8,17.6,35.6,27.7,59.4,27.7,39.7,0,72.3-29.2,72.3-74.7V154.3h62.9c-1.7-6-3.1-12.3-4.2-18.9h-81.6ZM545.1,237.6c20,20.6,45,33.2,70.2,39v-15.5c-23.6-1.7-48.4-9.1-70.2-23.5Z"/>
  <path id="_x3C_Path_x3E_1" data-name="_x3C_Path_x3E_" class="st0" d="M545.1,237.6c-19.4-19.9-34.1-47.3-40.1-83.3h-18.7c10.7,38.9,32.6,66.1,58.8,83.3ZM615.3,276.6v65.6c-36.3,0-70.7-6.9-101-27.3,35.3,35.3,78.1,46.3,124,46.3v-81.2c-7.6-.5-15.3-1.6-22.9-3.4ZM291.6,547.9c-9.7-12.3-15.5-28.2-15.5-46.9,0-52.5,41-80.2,95.7-74.4v-87.9c-7.9-1.3-15.9-1.8-22.5-1.8h-.4v70.7c-54.7-5.7-95.7,22-95.7,74.5s15.7,54,38.4,65.9ZM491.3,476.3c0,110.7-84.7,169.4-164.5,169.4s-66.7-10.4-93.2-28.6c29.8,29.6,70.9,47.5,116.1,47.5,79.8,0,164.5-58.7,164.5-169.4v-180.4c-7.9-5.4-15.6-11.6-22.9-19v180.4Z"/>
  <path id="_x3C_Path_x3E_2" data-name="_x3C_Path_x3E_" class="st2" d="M326.8,645.7c79.8,0,164.5-58.7,164.5-169.4v-180.4c7.3,7.3,15,13.6,22.9,19,30.3,20.4,64.7,27.3,101,27.3v-65.6c-25.2-5.7-50.1-18.3-70.2-39-26.2-17.3-48.1-44.4-58.8-83.3h-62.9v346.7c0,45.5-32.6,74.7-72.3,74.7s-45.7-10.1-59.4-27.7c-22.7-11.9-38.4-35.2-38.4-65.9,0-52.5,41-80.2,95.7-74.5v-70.7c-89.4.2-164.1,72-164.1,161s18.7,89.3,48.8,119.2c26.6,18.2,58.7,28.6,93.2,28.6Z"/>
</svg>